<svg xmlns="http://www.w3.org/2000/svg" viewBox="0 0 112.13 157.79"><g id="Layer_2" data-name="Layer 2"><g id="Layer_1-2" data-name="Layer 1"><path d="M89.19,58.2c0,11.12-3.13,20.28-9.29,27.25S65.79,95.81,55.64,95.81A32.19,32.19,0,0,1,38.3,91.07,31.69,31.69,0,0,1,26.53,77.71,45.49,45.49,0,0,1,22.3,57.78,43.64,43.64,0,0,1,26.52,38.3,31.14,31.14,0,0,1,38.28,25.24a32.82,32.82,0,0,1,17.36-4.65C65.79,20.59,73.73,24,79.9,31s9.29,16.13,9.29,27.25M85.57,6.93A57.17,57.17,0,0,0,57.35,0C42.85,0,30.89,5.11,21.72,15.2L19.85,1.28H0V157.79H22.51V103.18a41.38,41.38,0,0,0,11.08,8.14c6.58,3.37,14.58,5.07,23.76,5.07A54.77,54.77,0,0,0,85.51,109,51.91,51.91,0,0,0,105.12,88.4c4.65-8.72,7-18.88,7-30.2,0-11.88-2.36-22.33-7-31.05A49.26,49.26,0,0,0,85.57,6.93"/></g></g></svg>